<?xml version="1.0" encoding="UTF-8"?>
<svg width="383px" height="82px" viewBox="0 0 383 82" version="1.1" xmlns="http://www.w3.org/2000/svg" xmlns:xlink="http://www.w3.org/1999/xlink">
    <g stroke="none" stroke-width="1" fill="none" fill-rule="evenodd">
        <g fill="#FFFFFF" fill-rule="nonzero">
            <g>
                <rect x="0.238" y="14" width="15.876" height="62.086"></rect>
                <rect x="19.241" y="19" width="15.876" height="62.085"></rect>
                <rect x="37.724" y="12" width="15.875" height="62.084"></rect>
                <rect x="56.206" y="0" width="15.877" height="62.084"></rect>
                <g transform="translate(93.000, 12.000)">
                    <path d="M31.731,0.635 L51.174,52.631 L39.307,52.631 L35.371,41.048 L15.928,41.048 L11.85,52.631 L0.341,52.631 L20.006,0.635 L31.731,0.635 Z M32.387,32.529 L25.833,13.451 L25.683,13.451 L18.915,32.529 L32.387,32.529 Z"></path>
                    <path d="M78.527,47.824 C77.313,49.865 75.725,51.332 73.758,52.232 C71.791,53.127 69.57,53.576 67.094,53.576 C64.278,53.576 61.803,53.031 59.667,51.935 C57.527,50.847 55.771,49.363 54.387,47.495 C53.001,45.627 51.959,43.478 51.256,41.048 C50.553,38.624 50.199,36.099 50.199,33.477 C50.199,30.954 50.553,28.512 51.256,26.157 C51.959,23.804 53.001,21.726 54.387,19.933 C55.771,18.136 57.506,16.692 59.592,15.597 C61.681,14.506 64.108,13.959 66.875,13.959 C69.107,13.959 71.234,14.433 73.248,15.38 C75.262,16.327 76.853,17.723 78.019,19.566 L78.164,19.566 L78.164,0.635 L88.506,0.635 L88.506,52.631 L78.673,52.631 L78.673,47.824 L78.527,47.824 Z M78.091,29.217 C77.802,27.785 77.302,26.523 76.599,25.428 C75.896,24.34 74.982,23.452 73.868,22.77 C72.75,22.092 71.344,21.753 69.644,21.753 C67.943,21.753 66.514,22.092 65.349,22.77 C64.183,23.452 63.245,24.35 62.542,25.465 C61.841,26.582 61.329,27.858 61.015,29.292 C60.697,30.719 60.54,32.214 60.54,33.766 C60.54,35.225 60.712,36.682 61.052,38.136 C61.388,39.594 61.937,40.892 62.688,42.037 C63.443,43.177 64.387,44.099 65.529,44.801 C66.67,45.502 68.043,45.855 69.644,45.855 C71.343,45.855 72.765,45.52 73.906,44.838 C75.045,44.16 75.955,43.248 76.637,42.106 C77.315,40.967 77.803,39.668 78.092,38.211 C78.385,36.756 78.529,35.248 78.529,33.695 C78.527,32.139 78.384,30.649 78.091,29.217 Z"></path>
                    <path d="M96.283,20.512 C97.348,18.912 98.712,17.627 100.36,16.655 C102.01,15.684 103.868,14.993 105.932,14.581 C107.995,14.167 110.072,13.96 112.161,13.96 C114.054,13.96 115.97,14.093 117.913,14.364 C119.852,14.628 121.624,15.151 123.227,15.923 C124.83,16.706 126.139,17.786 127.162,19.167 C128.179,20.55 128.688,22.383 128.688,24.665 L128.688,44.259 C128.688,45.957 128.788,47.581 128.982,49.137 C129.174,50.69 129.516,51.856 130.001,52.632 L119.517,52.632 C119.32,52.047 119.162,51.456 119.042,50.849 C118.919,50.241 118.835,49.622 118.788,48.991 C117.137,50.689 115.194,51.88 112.962,52.557 C110.727,53.235 108.443,53.577 106.116,53.577 C104.316,53.577 102.645,53.356 101.089,52.921 C99.536,52.489 98.179,51.808 97.013,50.882 C95.847,49.96 94.937,48.794 94.28,47.384 C93.626,45.98 93.297,44.306 93.297,42.364 C93.297,40.228 93.675,38.466 94.425,37.083 C95.177,35.698 96.15,34.595 97.337,33.767 C98.528,32.945 99.888,32.328 101.415,31.912 C102.946,31.502 104.487,31.172 106.042,30.928 C107.595,30.688 109.126,30.492 110.632,30.348 C112.134,30.202 113.472,29.986 114.636,29.694 C115.801,29.401 116.724,28.975 117.406,28.417 C118.08,27.86 118.398,27.048 118.351,25.976 C118.351,24.861 118.167,23.976 117.803,23.322 C117.439,22.667 116.95,22.156 116.349,21.794 C115.738,21.428 115.035,21.188 114.235,21.065 C113.432,20.944 112.57,20.879 111.649,20.879 C109.609,20.879 108.008,21.319 106.842,22.193 C105.679,23.066 104.997,24.521 104.801,26.563 L94.462,26.563 C94.606,24.133 95.214,22.119 96.283,20.512 Z M116.713,35.115 C116.052,35.332 115.351,35.515 114.598,35.658 C113.845,35.808 113.059,35.929 112.232,36.027 C111.408,36.122 110.584,36.244 109.757,36.39 C108.982,36.535 108.214,36.728 107.462,36.972 C106.708,37.213 106.052,37.544 105.495,37.957 C104.938,38.367 104.487,38.891 104.147,39.519 C103.807,40.151 103.639,40.952 103.639,41.924 C103.639,42.846 103.807,43.622 104.147,44.256 C104.487,44.883 104.95,45.38 105.53,45.746 C106.116,46.11 106.794,46.364 107.571,46.512 C108.346,46.657 109.147,46.731 109.975,46.731 C112.014,46.731 113.59,46.39 114.709,45.71 C115.82,45.029 116.648,44.215 117.184,43.27 C117.715,42.325 118.041,41.365 118.166,40.395 C118.287,39.422 118.35,38.648 118.35,38.063 L118.35,34.206 C117.913,34.594 117.367,34.898 116.713,35.115 Z"></path>
                    <path d="M143.737,14.98 L143.737,19.787 L143.882,19.787 C145.144,17.75 146.747,16.264 148.689,15.343 C150.628,14.42 152.767,13.959 155.097,13.959 C158.056,13.959 160.605,14.52 162.743,15.635 C164.88,16.75 166.651,18.235 168.058,20.078 C169.465,21.922 170.512,24.073 171.194,26.522 C171.872,28.972 172.212,31.533 172.212,34.207 C172.212,36.728 171.872,39.156 171.194,41.488 C170.512,43.82 169.479,45.882 168.096,47.679 C166.711,49.474 164.991,50.907 162.926,51.972 C160.862,53.042 158.444,53.576 155.678,53.576 C153.346,53.576 151.198,53.101 149.237,52.158 C147.268,51.211 145.655,49.814 144.392,47.969 L144.244,47.969 L144.244,65.811 L133.902,65.811 L133.902,14.98 L143.737,14.98 Z M157.171,44.838 C158.317,44.16 159.237,43.272 159.941,42.18 C160.642,41.088 161.144,39.815 161.432,38.356 C161.724,36.899 161.872,35.419 161.872,33.913 C161.872,32.411 161.713,30.927 161.397,29.472 C161.079,28.015 160.557,26.716 159.831,25.577 C159.103,24.434 158.167,23.516 157.026,22.807 C155.885,22.106 154.487,21.753 152.838,21.753 C151.139,21.753 149.715,22.106 148.576,22.807 C147.437,23.516 146.512,24.424 145.81,25.539 C145.105,26.656 144.607,27.939 144.316,29.398 C144.025,30.855 143.88,32.359 143.88,33.912 C143.88,35.419 144.036,36.898 144.355,38.355 C144.669,39.814 145.179,41.087 145.882,42.179 C146.585,43.271 147.521,44.159 148.687,44.837 C149.853,45.519 151.261,45.854 152.91,45.854 C154.61,45.854 156.032,45.52 157.171,44.838 Z"></path>
                    <path d="M196.987,14.98 L196.987,21.898 L189.411,21.898 L189.411,40.541 C189.411,42.289 189.702,43.455 190.285,44.037 C190.868,44.619 192.032,44.908 193.778,44.908 C194.364,44.908 194.923,44.885 195.456,44.838 C195.991,44.79 196.499,44.715 196.987,44.619 L196.987,52.631 C196.114,52.777 195.139,52.871 194.072,52.92 C193.005,52.973 191.96,52.994 190.94,52.994 C189.337,52.994 187.821,52.881 186.387,52.664 C184.956,52.445 183.692,52.025 182.602,51.393 C181.508,50.759 180.648,49.865 180.016,48.699 C179.387,47.533 179.069,46.004 179.069,44.109 L179.069,21.898 L172.807,21.898 L172.807,14.98 L179.069,14.98 L179.069,3.693 L189.411,3.693 L189.411,14.98 L196.987,14.98 Z"></path>
                    <path d="M201.528,9.15 L201.528,0.634 L211.868,0.634 L211.868,9.15 L201.528,9.15 Z M211.868,14.98 L211.868,52.63 L201.528,52.63 L201.528,14.98 L211.868,14.98 Z"></path>
                    <polygon points="227.951 52.631 215.06 14.98 225.914 14.98 233.85 40.685 233.996 40.685 241.934 14.98 252.203 14.98 239.46 52.63 227.951 52.63"></polygon>
                    <path d="M264.771,43.597 C266.326,45.11 268.558,45.855 271.469,45.855 C273.558,45.855 275.354,45.338 276.863,44.293 C278.365,43.248 279.286,42.143 279.625,40.977 L288.73,40.977 C287.277,45.493 285.039,48.725 282.033,50.664 C279.018,52.611 275.379,53.577 271.107,53.577 C268.142,53.577 265.472,53.102 263.095,52.159 C260.718,51.212 258.701,49.866 257.052,48.118 C255.402,46.367 254.126,44.282 253.228,41.852 C252.329,39.424 251.88,36.756 251.88,33.843 C251.88,31.028 252.341,28.405 253.266,25.973 C254.188,23.548 255.496,21.45 257.199,19.676 C258.896,17.903 260.924,16.509 263.279,15.488 C265.633,14.468 268.243,13.959 271.107,13.959 C274.31,13.959 277.099,14.58 279.483,15.817 C281.861,17.058 283.816,18.718 285.343,20.804 C286.876,22.891 287.978,25.271 288.655,27.939 C289.336,30.613 289.581,33.404 289.384,36.318 L262.222,36.318 C262.368,39.668 263.216,42.096 264.771,43.597 Z M276.458,23.792 C275.222,22.434 273.336,21.753 270.815,21.753 C269.163,21.753 267.791,22.031 266.702,22.59 C265.608,23.15 264.733,23.841 264.079,24.664 C263.421,25.488 262.96,26.363 262.696,27.289 C262.428,28.211 262.268,29.035 262.221,29.762 L279.043,29.762 C278.56,27.141 277.696,25.149 276.458,23.792 Z"></path>
                </g>
            </g>
        </g>
    </g>
</svg>
